<svg width="20" height="20" viewBox="0 0 20 20" fill="none" xmlns="http://www.w3.org/2000/svg">
<path d="M17.07 2.93C15.184 1.10842 12.658 0.100477 10.036 0.123261C7.41403 0.146045 4.90591 1.19773 3.05183 3.05182C1.19775 4.9059 0.146057 7.41402 0.123272 10.036C0.100488 12.658 1.10843 15.184 2.93001 17.07C4.81603 18.8916 7.34206 19.8995 9.96402 19.8767C12.586 19.854 15.0941 18.8023 16.9482 16.9482C18.8023 15.0941 19.854 12.586 19.8768 9.96401C19.8995 7.34205 18.8916 4.81602 17.07 2.93ZM4.34001 4.34C5.4667 3.21285 6.90437 2.44789 8.46869 2.14323C10.033 1.83856 11.6527 2.00806 13.12 2.63L12.83 2.93L13.54 3.64L14.06 3.11C14.3499 3.28494 14.6303 3.47521 14.9 3.68L3.68001 14.9C3.47522 14.6303 3.28495 14.3499 3.11001 14.06L3.64001 13.54L2.93001 12.83L2.64001 13.12C2.01683 11.6536 1.84571 10.0345 2.14858 8.47027C2.45146 6.90601 3.21453 5.46781 4.34001 4.34ZM15.66 15.66C14.5333 16.7872 13.0957 17.5521 11.5313 17.8568C9.96702 18.1614 8.34736 17.9919 6.88001 17.37L7.17001 17.07L6.46001 16.36L5.94001 16.89C5.65009 16.7151 5.36969 16.5248 5.10001 16.32L16.32 5.1C16.5248 5.36968 16.7151 5.65007 16.89 5.94L16.36 6.46L17.07 7.17L17.36 6.88C17.9832 8.34639 18.1543 9.96547 17.8514 11.5297C17.5486 13.094 16.7855 14.5322 15.66 15.66ZM9.29001 13.54L10 14.24L8.59001 15.66L7.88001 15L9.29001 13.54ZM12.12 10.71L12.83 11.41L11.41 12.83L10.71 12.12L12.12 10.71ZM15 7.88L15.71 8.59L14.24 10L13.54 9.29L15 7.88ZM10.71 6.46L10 5.76L11.41 4.34L12.12 5.05L10.71 6.46ZM7.88001 9.29L7.17001 8.59L8.59001 7.17L9.29001 7.88L7.88001 9.29ZM5.05001 12.12L4.34001 11.41L5.76001 10L6.46001 10.71L5.05001 12.12Z" fill="black"/>
</svg>
